<?xml version="1.0" encoding="UTF-8"?>
<svg width="750px" height="156px" viewBox="0 0 750 156" version="1.1" xmlns="http://www.w3.org/2000/svg" xmlns:xlink="http://www.w3.org/1999/xlink">
    <!-- Generator: Sketch 47 (45396) - http://www.bohemiancoding.com/sketch -->
    <title>horizontal-whiteblue</title>
    <desc>Created with Sketch.</desc>
    <defs></defs>
    <g id="Brand" stroke="none" stroke-width="1" fill="none" fill-rule="evenodd">
        <g id="horizontal-whiteblue">
            <g id="logo" transform="translate(29.000000, 18.000000)">
                <g id="manila" transform="translate(0.000000, 9.000000)" fill="#FFFFFF">
                    <polygon id="ManilaCSS" points="57.1521532 97.5087509 78.3788481 40.5928102 78.3788481 97.5087509 97.4560043 97.5087509 97.4560043 6.2284686 74.2141168 6.2284686 48.9570367 73.2120875 23.5656105 6.2284686 0.189376857 6.2284686 0.189376857 97.5087509 19.2665331 97.5087509 19.2665331 40.5928102 40.493228 97.5087509"></polygon>
                    <path d="M118.010968,50.5262526 L118.010968,33.2098462 C122.847431,31.1963105 130.370816,29.3170106 137.356817,29.3170106 C155.359204,29.3170106 165.838205,37.908096 165.838205,57.3722738 L165.838205,97.5087509 L147.567126,97.5087509 L147.567126,92.5420296 C144.208472,96.4348652 139.103317,98.9853437 132.654701,98.9853437 C117.742276,98.9853437 110.621929,88.5149584 110.621929,77.2391588 C110.621929,65.2921807 119.35443,55.7614453 132.923393,55.7614453 C138.565932,55.7614453 144.208472,57.7749809 147.567126,60.5939308 L147.567126,56.9695667 C147.567126,48.9154241 142.193279,45.5595314 135.207278,45.5595314 C129.296047,45.5595314 122.981777,47.573067 118.010968,50.5262526 Z M128.624316,77.2391588 C128.624316,81.9374086 132.789047,85.5617728 138.028548,85.5617728 C143.268048,85.5617728 147.298434,81.9374086 147.298434,77.2391588 C147.298434,72.540909 143.268048,68.9165448 138.028548,68.9165448 C132.789047,68.9165448 128.624316,72.540909 128.624316,77.2391588 Z" id="Combined-Shape"></path>
                    <path d="M198.753017,30.6593677 L180.481938,30.6593677 L180.481938,97.5087509 L198.753017,97.5087509 L198.753017,58.7146309 C199.156055,51.6001383 203.455133,47.1703599 210.172441,47.1703599 C217.158442,47.1703599 221.591866,52.1370812 221.591866,59.5200452 L221.591866,97.5087509 L239.997291,97.5087509 L239.997291,54.4190882 C239.997291,40.0558673 230.727405,29.3170106 216.352365,29.3170106 C208.022903,29.3170106 202.380363,33.3440819 198.753017,39.1162174 L198.753017,30.6593677 Z" id="Path"></path>
                    <path d="M253.02887,11.1951898 C253.02887,5.15458292 257.59664,0.322097389 263.776563,0.322097389 C270.090833,0.322097389 274.524257,5.15458292 274.524257,11.1951898 C274.524257,17.2357968 270.090833,21.9340466 263.776563,21.9340466 C257.59664,21.9340466 253.02887,17.2357968 253.02887,11.1951898 Z M272.912103,30.6593677 L272.912103,97.5087509 L254.641024,97.5087509 L254.641024,30.6593677 L272.912103,30.6593677 Z" id="Combined-Shape"></path>
                    <polygon id="Path" points="306.632992 4.8861115 288.227566 4.8861115 288.227566 97.5087509 306.632992 97.5087509"></polygon>
                    <path d="M324.769725,50.5262526 L324.769725,33.2098462 C329.606187,31.1963105 337.129572,29.3170106 344.115573,29.3170106 C362.11796,29.3170106 372.596961,37.908096 372.596961,57.3722738 L372.596961,97.5087509 L354.325882,97.5087509 L354.325882,92.5420296 C350.967228,96.4348652 345.862074,98.9853437 339.413457,98.9853437 C324.501032,98.9853437 317.380685,88.5149584 317.380685,77.2391588 C317.380685,65.2921807 326.113186,55.7614453 339.68215,55.7614453 C345.324689,55.7614453 350.967228,57.7749809 354.325882,60.5939308 L354.325882,56.9695667 C354.325882,48.9154241 348.952035,45.5595314 341.966035,45.5595314 C336.054803,45.5595314 329.740533,47.573067 324.769725,50.5262526 Z M335.383072,77.2391588 C335.383072,81.9374086 339.547804,85.5617728 344.787304,85.5617728 C350.026805,85.5617728 354.05719,81.9374086 354.05719,77.2391588 C354.05719,72.540909 350.026805,68.9165448 344.787304,68.9165448 C339.547804,68.9165448 335.383072,72.540909 335.383072,77.2391588 Z" id="Combined-Shape"></path>
                </g>
                <g id="css" transform="translate(383.000000, 13.000000)" fill="#039BE5">
                    <path d="M67.8448161,67.7890332 C63.008354,72.0845759 55.4849684,75.1719972 47.0211597,75.1719972 C31.3026577,75.1719972 19.6145409,62.6880762 19.6145409,47.1167339 C19.6145409,31.6796274 31.4370039,19.0614707 47.0211597,19.0614707 C55.4849684,19.0614707 62.7396616,22.148892 67.8448161,26.5786704 L67.8448161,4.69824982 C61.6648923,1.74506422 54.5445452,0 47.0211597,0 C20.2862717,0 0,20.4038278 0,47.1167339 C0,73.8296401 20.2862717,94.2334679 47.0211597,94.2334679 C54.5445452,94.2334679 61.6648923,92.4884037 67.8448161,89.5352181 L67.8448161,67.7890332 Z" id="Path"></path>
                    <path d="M132.454583,4.16130699 C126.812044,1.61082851 119.691697,0 112.840042,0 C89.1951164,0 81,13.8262781 81,26.5786704 C81,36.91482 84.7616928,44.7004912 96.8528481,51.6807481 L109.347042,59.0637121 C114.452196,62.0168977 116.601735,64.8358476 116.601735,67.9232689 C116.601735,72.8899901 112.57135,76.3801186 105.316657,76.3801186 C96.8528481,76.3801186 87.9860009,72.3530473 83.0151926,68.4602117 L83.0151926,89.5352181 C88.7920779,91.9514608 97.1215405,94.2334679 106.122734,94.2334679 C127.349429,94.2334679 136.888007,81.2126041 136.888007,66.8493832 C136.888007,56.6474693 132.185891,48.7275625 120.363428,41.6130699 L108.272273,34.3643416 C103.838849,31.8138631 101.420618,28.9949132 101.420618,26.0417276 C101.420618,21.3434778 105.047965,17.8533493 112.705696,17.8533493 C119.691697,17.8533493 127.752467,21.0750064 132.454583,24.4308991 L132.454583,4.16130699 Z" id="Path"></path>
                    <path d="M197.454583,4.16130699 C191.812044,1.61082851 184.691697,0 177.840042,0 C154.195116,0 146,13.8262781 146,26.5786704 C146,36.91482 149.761693,44.7004912 161.852848,51.6807481 L174.347042,59.0637121 C179.452196,62.0168977 181.601735,64.8358476 181.601735,67.9232689 C181.601735,72.8899901 177.57135,76.3801186 170.316657,76.3801186 C161.852848,76.3801186 152.986001,72.3530473 148.015193,68.4602117 L148.015193,89.5352181 C153.792078,91.9514608 162.12154,94.2334679 171.122734,94.2334679 C192.349429,94.2334679 201.888007,81.2126041 201.888007,66.8493832 C201.888007,56.6474693 197.185891,48.7275625 185.363428,41.6130699 L173.272273,34.3643416 C168.838849,31.8138631 166.420618,28.9949132 166.420618,26.0417276 C166.420618,21.3434778 170.047965,17.8533493 177.705696,17.8533493 C184.691697,17.8533493 192.752467,21.0750064 197.454583,24.4308991 L197.454583,4.16130699 Z" id="Path"></path>
                </g>
                <g id="brackets" transform="translate(596.000000, 0.000000)" fill="#F9C82E">
                    <path d="M60,99.4686606 L66.0455777,99.4686606 C68.3742563,99.4686606 70.2550838,98.9764679 71.6881168,97.9920677 C73.1211498,97.0076676 73.8376556,95.3968552 73.8376556,93.1595822 L73.8376556,70.6079831 C73.8376556,68.1022373 74.4198165,65.6189015 75.5841558,63.1579012 C76.7484951,60.6969009 79.0771387,58.8399922 82.5701566,57.5871193 C79.0771387,56.3342464 76.7484951,54.4773376 75.5841558,52.0163373 C74.4198165,49.555337 73.8376556,47.0720012 73.8376556,44.5662555 L73.8376556,22.0146563 C73.8376556,19.7773833 73.1211498,18.1665709 71.6881168,17.1821708 C70.2550838,16.1977707 68.3742563,15.705578 66.0455777,15.705578 L60,15.705578 L60,1.42108547e-14 L72.0911553,1.42108547e-14 C77.9128518,-1.68584663e-15 82.59253,1.6331848 86.1303302,4.89960339 C89.6681303,8.16602198 91.4370039,13.1550659 91.4370039,19.866885 L91.4370039,40.4049485 C91.4370039,43.2686579 92.1759004,45.5506422 93.6537157,47.2509697 C95.131531,48.9512971 97.2138758,49.8014481 99.9008126,49.8014481 L101.109928,49.8014481 L101.109928,65.3727904 L99.9008126,65.3727904 C97.2138758,65.3727904 95.131531,66.2229414 93.6537157,67.9232689 C92.1759004,69.6235964 91.4370039,71.9055806 91.4370039,74.76929 L91.4370039,95.3073536 C91.4370039,102.019173 89.6681303,107.008217 86.1303302,110.274635 C82.59253,113.541054 77.9128518,115.174239 72.0911553,115.174239 L60,115.174239 L60,99.4686606 Z" id="}"></path>
                    <path d="M9.67292428,74.76929 C9.67292428,71.9055806 8.97880934,69.6235964 7.59055863,67.9232689 C6.20230793,66.2229414 4.0751815,65.3727904 1.20911553,65.3727904 L0,65.3727904 L0,49.8014481 L1.20911553,49.8014481 C4.0751815,49.8014481 6.20230793,48.9512971 7.59055863,47.2509697 C8.97880934,45.5506422 9.67292428,43.2686579 9.67292428,40.4049485 L9.67292428,19.866885 C9.67292428,13.1550659 11.4641886,8.16602198 15.0467711,4.89960339 C18.6293536,1.6331848 23.2866409,-1.68584663e-15 29.0187728,1.42108547e-14 L41.1099282,1.42108547e-14 L41.1099282,15.705578 L35.0643505,15.705578 C32.7356719,15.705578 30.8548443,16.1977707 29.4218113,17.1821708 C27.9887784,18.1665709 27.2722726,19.7773833 27.2722726,22.0146563 L27.2722726,44.5662555 C27.2722726,47.0720012 26.6901117,49.555337 25.5257724,52.0163373 C24.3614331,54.4773376 22.1223526,56.3342464 18.8084639,57.5871193 C22.1223526,58.8399922 24.3614331,60.6969009 25.5257724,63.1579012 C26.6901117,65.6189015 27.2722726,68.1022373 27.2722726,70.6079831 L27.2722726,93.1595822 C27.2722726,95.3968552 27.9887784,97.0076676 29.4218113,97.9920677 C30.8548443,98.9764679 32.7356719,99.4686606 35.0643505,99.4686606 L41.1099282,99.4686606 L41.1099282,115.174239 L29.0187728,115.174239 C23.2866409,115.174239 18.6293536,113.541054 15.0467711,110.274635 C11.4641886,107.008217 9.67292428,102.019173 9.67292428,95.3073536 L9.67292428,74.76929 Z" id="{"></path>
                </g>
            </g>
        </g>
    </g>
</svg>