<?xml version="1.0" encoding="UTF-8"?>
<svg width="485px" height="383px" viewBox="0 0 485 383" version="1.1" xmlns="http://www.w3.org/2000/svg" xmlns:xlink="http://www.w3.org/1999/xlink">
    <!-- Generator: Sketch 47 (45396) - http://www.bohemiancoding.com/sketch -->
    <title>vertical-white</title>
    <desc>Created with Sketch.</desc>
    <defs></defs>
    <g id="Brand" stroke="none" stroke-width="1" fill="none" fill-rule="evenodd">
        <g id="vertical-white" fill="#FFFFFF">
            <g id="logo" transform="translate(57.000000, 78.000000)">
                <g id="manila">
                    <polygon id="ManilaCSS" points="56.2209945 98 77.1712707 41.2588235 77.1712707 98 96 98 96 7 73.0607735 7 48.1325967 73.7779412 23.0718232 7 0 7 0 98 18.8287293 98 18.8287293 41.2588235 39.7790055 98"></polygon>
                    <path d="M117.493917,51.0057803 L117.493917,33.8554913 C122.399027,31.8612717 130.029197,30 137.114355,30 C155.372263,30 166,38.5086705 166,57.7861272 L166,97.5375723 L147.469586,97.5375723 L147.469586,92.6184971 C144.06326,96.4739884 138.885645,99 132.345499,99 C117.221411,99 110,88.6300578 110,77.4624277 C110,65.6300578 118.856448,56.1907514 132.618005,56.1907514 C138.340633,56.1907514 144.06326,58.1849711 147.469586,60.9768786 L147.469586,57.3872832 C147.469586,49.4104046 142.019465,46.0867052 134.934307,46.0867052 C128.939173,46.0867052 122.53528,48.0809249 117.493917,51.0057803 Z M128.257908,77.4624277 C128.257908,82.1156069 132.481752,85.7052023 137.79562,85.7052023 C143.109489,85.7052023 147.19708,82.1156069 147.19708,77.4624277 C147.19708,72.8092486 143.109489,69.2196532 137.79562,69.2196532 C132.481752,69.2196532 128.257908,72.8092486 128.257908,77.4624277 Z" id="Combined-Shape"></path>
                    <path d="M199.419865,31.3385827 L181,31.3385827 L181,98 L199.419865,98 L199.419865,59.3149606 C199.826185,52.2204724 204.160271,47.8031496 210.93228,47.8031496 C217.975169,47.8031496 222.444695,52.7559055 222.444695,60.1181102 L222.444695,98 L241,98 L241,55.0314961 C241,40.7086614 231.654628,30 217.162528,30 C208.765237,30 203.076749,34.015748 199.419865,39.7716535 L199.419865,31.3385827 Z" id="Path"></path>
                    <path d="M253,10.8522099 C253,4.82320442 257.675,0 264,0 C270.4625,0 275,4.82320442 275,10.8522099 C275,16.8812155 270.4625,21.570442 264,21.570442 C257.675,21.570442 253,16.8812155 253,10.8522099 Z M273.35,30.2790055 L273.35,97 L254.65,97 L254.65,30.2790055 L273.35,30.2790055 Z" id="Combined-Shape"></path>
                    <polygon id="Path" points="307 5 288 5 288 97 307 97"></polygon>
                    <path d="M323.493917,51.0057803 L323.493917,33.8554913 C328.399027,31.8612717 336.029197,30 343.114355,30 C361.372263,30 372,38.5086705 372,57.7861272 L372,97.5375723 L353.469586,97.5375723 L353.469586,92.6184971 C350.06326,96.4739884 344.885645,99 338.345499,99 C323.221411,99 316,88.6300578 316,77.4624277 C316,65.6300578 324.856448,56.1907514 338.618005,56.1907514 C344.340633,56.1907514 350.06326,58.1849711 353.469586,60.9768786 L353.469586,57.3872832 C353.469586,49.4104046 348.019465,46.0867052 340.934307,46.0867052 C334.939173,46.0867052 328.53528,48.0809249 323.493917,51.0057803 Z M334.257908,77.4624277 C334.257908,82.1156069 338.481752,85.7052023 343.79562,85.7052023 C349.109489,85.7052023 353.19708,82.1156069 353.19708,77.4624277 C353.19708,72.8092486 349.109489,69.2196532 343.79562,69.2196532 C338.481752,69.2196532 334.257908,72.8092486 334.257908,77.4624277 Z" id="Combined-Shape"></path>
                </g>
                <g id="css" transform="translate(0.000000, 125.000000)">
                    <path d="M68,67.6210826 C63.1524752,71.9059829 55.6118812,74.985755 47.1287129,74.985755 C31.3742574,74.985755 19.6594059,62.5327635 19.6594059,47 C19.6594059,31.6011396 31.5089109,19.014245 47.1287129,19.014245 C55.6118812,19.014245 62.8831683,22.0940171 68,26.5128205 L68,4.68660969 C61.8059406,1.74074074 54.6693069,0 47.1287129,0 C20.3326733,0 0,20.3532764 0,47 C0,73.6467236 20.3326733,94 47.1287129,94 C54.6693069,94 61.8059406,92.2592593 68,89.3133903 L68,67.6210826 Z" id="Path"></path>
                    <path d="M131.557692,4.15099715 C125.903846,1.60683761 118.769231,0 111.903846,0 C88.2115385,0 80,13.7920228 80,26.5128205 C80,36.8233618 83.7692308,44.5897436 95.8846154,51.5527066 L108.403846,58.9173789 C113.519231,61.8632479 115.673077,64.6752137 115.673077,67.7549858 C115.673077,72.7094017 111.634615,76.1908832 104.365385,76.1908832 C95.8846154,76.1908832 87,72.1737892 82.0192308,68.2905983 L82.0192308,89.3133903 C87.8076923,91.7236467 96.1538462,94 105.173077,94 C126.442308,94 136,81.011396 136,66.6837607 C136,56.5071225 131.288462,48.6068376 119.442308,41.5099715 L107.326923,34.2792023 C102.884615,31.7350427 100.461538,28.9230769 100.461538,25.977208 C100.461538,21.2905983 104.096154,17.8091168 111.769231,17.8091168 C118.769231,17.8091168 126.846154,21.022792 131.557692,24.3703704 L131.557692,4.15099715 Z" id="Path"></path>
                    <path d="M196.557692,4.15099715 C190.903846,1.60683761 183.769231,0 176.903846,0 C153.211538,0 145,13.7920228 145,26.5128205 C145,36.8233618 148.769231,44.5897436 160.884615,51.5527066 L173.403846,58.9173789 C178.519231,61.8632479 180.673077,64.6752137 180.673077,67.7549858 C180.673077,72.7094017 176.634615,76.1908832 169.365385,76.1908832 C160.884615,76.1908832 152,72.1737892 147.019231,68.2905983 L147.019231,89.3133903 C152.807692,91.7236467 161.153846,94 170.173077,94 C191.442308,94 201,81.011396 201,66.6837607 C201,56.5071225 196.288462,48.6068376 184.442308,41.5099715 L172.326923,34.2792023 C167.884615,31.7350427 165.461538,28.9230769 165.461538,25.977208 C165.461538,21.2905983 169.096154,17.8091168 176.769231,17.8091168 C183.769231,17.8091168 191.846154,21.022792 196.557692,24.3703704 L196.557692,4.15099715 Z" id="Path"></path>
                </g>
                <g id="brackets" transform="translate(213.000000, 111.000000)">
                    <path d="M60,100.181818 L66.0294118,100.181818 C68.3518635,100.181818 70.2276617,99.6860966 71.6568627,98.6946387 C73.0860638,97.7031807 73.8006536,96.0808193 73.8006536,93.8275058 L73.8006536,71.1142191 C73.8006536,68.590508 74.3812578,66.0893675 75.5424837,63.6107226 C76.7037095,61.1320777 79.0261264,59.2618556 82.5098039,58 C79.0261264,56.7381444 76.7037095,54.8679223 75.5424837,52.3892774 C74.3812578,49.9106325 73.8006536,47.409492 73.8006536,44.8857809 L73.8006536,22.1724942 C73.8006536,19.9191807 73.0860638,18.2968193 71.6568627,17.3053613 C70.2276617,16.3139034 68.3518635,15.8181818 66.0294118,15.8181818 L60,15.8181818 L60,1.42108547e-14 L72.0588235,1.42108547e-14 C77.8649528,-1.79982076e-15 82.5321174,1.6448942 86.0604575,4.93473193 C89.5887976,8.22456967 91.3529412,13.2493834 91.3529412,20.009324 L91.3529412,40.6946387 C91.3529412,43.57888 92.0898619,45.8772253 93.5637255,47.5897436 C95.0375891,49.3022619 97.1143657,50.1585082 99.7941176,50.1585082 L101,50.1585082 L101,65.8414918 L99.7941176,65.8414918 C97.1143657,65.8414918 95.0375891,66.6977381 93.5637255,68.4102564 C92.0898619,70.1227747 91.3529412,72.42112 91.3529412,75.3053613 L91.3529412,95.990676 C91.3529412,102.750617 89.5887976,107.77543 86.0604575,111.065268 C82.5321174,114.355106 77.8649528,116 72.0588235,116 L60,116 L60,100.181818 Z" id="}"></path>
                    <path d="M9.64705882,75.3053613 C9.64705882,72.42112 8.95479995,70.1227747 7.57026144,68.4102564 C6.18572292,66.6977381 4.06428444,65.8414918 1.20588235,65.8414918 L0,65.8414918 L0,50.1585082 L1.20588235,50.1585082 C4.06428444,50.1585082 6.18572292,49.3022619 7.57026144,47.5897436 C8.95479995,45.8772253 9.64705882,43.57888 9.64705882,40.6946387 L9.64705882,20.009324 C9.64705882,13.2493834 11.4335333,8.22456967 15.0065359,4.93473193 C18.5795386,1.6448942 23.2243723,-1.79982076e-15 28.9411765,1.42108547e-14 L41,1.42108547e-14 L41,15.8181818 L34.9705882,15.8181818 C32.6481365,15.8181818 30.7723383,16.3139034 29.3431373,17.3053613 C27.9139362,18.2968193 27.1993464,19.9191807 27.1993464,22.1724942 L27.1993464,44.8857809 C27.1993464,47.409492 26.6187422,49.9106325 25.4575163,52.3892774 C24.2962905,54.8679223 22.0631974,56.7381444 18.7581699,58 C22.0631974,59.2618556 24.2962905,61.1320777 25.4575163,63.6107226 C26.6187422,66.0893675 27.1993464,68.590508 27.1993464,71.1142191 L27.1993464,93.8275058 C27.1993464,96.0808193 27.9139362,97.7031807 29.3431373,98.6946387 C30.7723383,99.6860966 32.6481365,100.181818 34.9705882,100.181818 L41,100.181818 L41,116 L28.9411765,116 C23.2243723,116 18.5795386,114.355106 15.0065359,111.065268 C11.4335333,107.77543 9.64705882,102.750617 9.64705882,95.990676 L9.64705882,75.3053613 Z" id="{"></path>
                </g>
            </g>
        </g>
    </g>
</svg>